<svg xmlns="http://www.w3.org/2000/svg" viewBox="0 0 800 800"><style type="text/css">  
	.st0{fill:#E20916;}
	.st1{fill:#541517;}
</style><path class="st0" d="M574.3 1523.8c1.9 6 4.9 17 5.5 19.7 0.8 3.7 2.6 3.5 2.6 3.5h3.6c2.2 0 2.8-4.3 2.8-4.3l6.4-22.9 27.9-104c0.2-0.6 0.4-1.1 0.5-1.4 6.7-22.5 30-40.5 52.6-40.5h96.4c19.3 0 19.3 11.6 19.3 11.6 0 9.7-21.3 7.8-21.3 7.8 -20.9 0-30 16.5-33.8 27.1l-57.5 214.9c-6.2 23.1-29.9 41.8-53 41.8 -1.4-0.1-84 0-84 0 -23.1 0-46.8-18.7-53-41.8l-24.1-89.7c-1.2-4.4-5.4-19.6-6.1-22.9 -0.8-3.7-2.6-3.5-2.6-3.5h-3.6c-2.2 0-2.8 4.3-2.8 4.3l-5.3 19 -24.9 92.8c-6.2 23.1-29.9 41.8-53 41.8h-84c-23.1 0-46.8-18.7-53-41.8l-24.1-89.7c-1.2-4.4-5.4-19.6-6.1-22.9 -0.8-3.7-2.6-3.5-2.6-3.5h-3.6c-2.2 0-2.8 4.3-2.8 4.3l-5.3 19 -24.9 92.8c-6.2 23.1-29.9 41.8-53 41.8H11.2c-19.3 0-19.3-11.6-19.3-11.6 0-9.7 21.3-7.8 21.3-7.8 20.9 0 30.1-16.5 33.8-27.1l57.6-214.9c6.2-23.1 29.9-41.8 53-41.8h75.6c23.1 0 46.8 18.7 53 41.8l28.2 105.1c1.5 4.1 5.7 19.3 6.4 22.6 0.8 3.7 2.6 3.5 2.6 3.5h3.6c2.2 0 2.8-4.3 2.8-4.3l6.4-22.9 27.9-104c6.2-23.1 29.9-41.8 53-41.8h75.6c23.1 0 46.8 18.7 53 41.8L574.3 1523.8z"/><circle class="st0" cx="195.2" cy="1300.8" r="41.8"/><circle class="st0" cx="454.6" cy="1300.8" r="41.8"/><circle class="st0" cx="713.9" cy="1300.8" r="41.8"/><path class="st1" d="M516.4 1660.5h-12.1c-7.1-7-12.6-15.7-15.1-25.1l-24.1-89.7c-1.2-4.4-5.4-19.6-6.1-22.9 -0.8-3.7-2.6-3.5-2.6-3.5h-3.6c-0.9 0-1.5 0.7-1.9 1.6l23.7-88.4c6.2-23.1 29.9-41.8 53-41.8h2.7c7.1 7 12.6 15.7 15.1 25.1l28.2 105.1c1.5 4.1 5.7 19.3 6.4 22.6 0.8 3.7 2.6 3.5 2.6 3.5h3.6c2.2 0 2.8-4.3 2.8-4.3l-19.5 76C563.2 1641.8 539.5 1660.5 516.4 1660.5z"/><path class="st1" d="M257 1660.5h-12.1c-7.1-7-12.6-15.7-15.1-25.1l-24.1-89.7c-1.2-4.4-5.4-19.6-6.1-22.9 -0.8-3.7-2.6-3.5-2.6-3.5h-3.6c-0.9 0-1.5 0.7-1.9 1.6l23.7-88.4c6.2-23.1 29.9-41.8 53-41.8h2.7c7.1 7 12.6 15.7 15.1 25.1l28.2 105.1c1.5 4.1 5.7 19.3 6.4 22.6 0.8 3.7 2.6 3.5 2.6 3.5h3.6c2.2 0 2.8-4.3 2.8-4.3l-19.5 76C303.8 1641.8 280.1 1660.5 257 1660.5z"/><circle class="st0" cx="197.3" cy="227.6" r="43.1"/><circle class="st0" cx="464.6" cy="227.6" r="43.1"/><circle class="st0" cx="731.8" cy="227.6" r="43.1"/><path class="st0" d="M800 313c0 3.7-2.1 7.1-5.3 8.8 -1.4 0.8-3 1.1-4.6 1.1 -0.3 0-0.6 0-0.9 0 -1 0-2 0.1-3 0.2 -18.7 1.9-27.2 17.4-30.8 27.7 0 0 0 0.1 0 0.1l-59.3 221.5c-6.4 23.8-30.8 43.1-54.6 43.1 -1.5-0.1-86.6 0-86.6 0 -23.8 0-48.2-19.3-54.6-43.1l-24.8-92.4c-1.3-4.5-5.6-20.2-6.3-23.6 -0.8-3.8-2.7-3.6-2.7-3.6h-3.7c-2.3 0-2.9 4.4-2.9 4.4l-5.4 19.5 -25.6 95.6c-6.4 23.8-30.8 43.1-54.6 43.1h-86.6c-23.8 0-48.2-19.3-54.6-43.1l-24.8-92.4c-1.3-4.5-5.6-20.2-6.3-23.6 -0.8-3.8-2.7-3.6-2.7-3.6h-3.7c-2.3 0-2.9 4.4-2.9 4.4l-5.4 19.5 -25.6 95.6c-6.4 23.8-30.8 43.1-54.6 43.1H10c-0.3 0-0.7 0-1 0H9C3.9 614.9 0 610.7 0 605.5c0-3.7 2.1-7.1 5.3-8.8 1.4-0.8 3-1.1 4.6-1.1 21.4-0.1 30.7-17 34.5-28l59.3-221.4c6.4-23.8 30.8-43.1 54.6-43.1h77.9c23.8 0 48.3 19.3 54.6 43.1l29 108.3c1.6 4.2 5.9 19.9 6.7 23.3 0.8 3.8 2.7 3.6 2.7 3.6h3.7c2.3 0 2.9-4.4 2.9-4.4l6.5-23.6 28.7-107.2c6.4-23.8 30.8-43.1 54.6-43.1h77.9c23.8 0 48.3 19.3 54.6 43.1l29.8 111.3c1.9 6.2 5.1 17.5 5.7 20.3 0.8 3.8 2.7 3.6 2.7 3.6h3.7c2.3 0 2.9-4.4 2.9-4.4l6.5-23.6 28.7-107.2c0.2-0.7 0.4-1.1 0.6-1.4 6.9-23.2 30.9-41.7 54.2-41.7h97.2c0.3 0 0.7 0 1 0.1h0.1C796.1 303.6 800 307.8 800 313z"/><path class="st1" d="M528.3 598.3h-12.4c-7.3-7.2-12.9-16.2-15.5-25.9l-24.8-92.4c-1.3-4.5-5.6-20.2-6.3-23.6 -0.8-3.8-2.7-3.6-2.7-3.6h-3.7c-0.9 0-1.6 0.8-2 1.6l24.4-91.1c6.4-23.8 30.8-43.1 54.6-43.1h2.8c7.3 7.2 12.9 16.2 15.5 25.9l29 108.3c1.6 4.2 5.9 19.9 6.6 23.3 0.8 3.8 2.7 3.6 2.7 3.6h3.7c2.3 0 2.9-4.4 2.9-4.4l-20.1 78.3C576.5 579 552.1 598.3 528.3 598.3z"/><path class="st1" d="M261 598.3h-12.4c-7.3-7.2-12.9-16.2-15.5-25.9l-24.8-92.4c-1.3-4.5-5.6-20.2-6.3-23.6 -0.8-3.8-2.7-3.6-2.7-3.6h-3.7c-0.9 0-1.6 0.8-2 1.6l24.4-91.1c6.4-23.8 30.8-43.1 54.6-43.1h2.8c7.3 7.2 12.9 16.2 15.5 25.9l29 108.3c1.6 4.2 5.9 19.9 6.6 23.3 0.8 3.8 2.7 3.6 2.7 3.6h3.7c2.3 0 2.9-4.4 2.9-4.4l-20.1 78.3C309.2 579 284.8 598.3 261 598.3z"/></svg>